<?xml version="1.0" encoding="utf-8"?>
<!-- Generator: Adobe Illustrator 17.1.0, SVG Export Plug-In . SVG Version: 6.00 Build 0)  -->
<!DOCTYPE svg PUBLIC "-//W3C//DTD SVG 1.1//EN" "http://www.w3.org/Graphics/SVG/1.1/DTD/svg11.dtd">
<svg version="1.1" id="Layer_1" xmlns="http://www.w3.org/2000/svg" xmlns:xlink="http://www.w3.org/1999/xlink" x="0px" y="0px"
	 viewBox="0 0 259.3 96.9" enable-background="new 0 0 259.3 96.9" xml:space="preserve">
<g>
	<path d="M27.3,68.9c0.6,0,1.1,0.2,1.5,0.6c0.5,0.4,0.7,1,0.7,1.6c0,4.7,0.5,8.4,1.6,11.2c1,2.8,2.4,4.9,4,6.4
		c1.6,1.5,3.3,2.4,5.2,2.8c1.9,0.4,3.7,0.6,5.5,0.6c5.2,0,9.2-1.8,12-5.4c2.8-3.6,4.2-8.6,4.2-15c0-3.5-0.6-6.4-1.8-8.7
		c-1.2-2.3-2.6-4.3-4.3-5.7c-1.7-1.5-3.4-2.7-5.2-3.5c-1.8-0.9-3.3-1.6-4.4-2.1l-2.5-1.1c-1.5-0.6-3.2-1.4-5.3-2.5
		c-2.1-1.1-4.1-2.7-6.1-4.6c-2-2-3.7-4.4-5.1-7.3c-1.4-2.9-2.1-6.4-2.1-10.6c0-7.3,1.7-13.3,5-17.9C33.7,2.6,38.9,0,45.5,0
		c0,0,0.1,0,0.2,0c6.9,0,12.1,2.2,15.6,6.6c3.5,4.3,5.2,10.7,5.2,19.1c0,0.6-0.2,1.1-0.7,1.6c-0.4,0.5-1,0.7-1.6,0.7
		c-0.7,0-1.2-0.2-1.6-0.7c-0.4-0.5-0.7-1-0.7-1.6c0-7.3-1.4-12.7-4.1-16.2c-2.6-3.4-6.6-5-12-5c-5.1,0-9,2-11.9,6
		c-2.8,3.9-4.3,9-4.3,15.2c0,3.5,0.6,6.4,1.7,8.8s2.6,4.4,4.2,6c1.7,1.6,3.4,2.9,5.2,3.8c1.8,1,3.5,1.7,4.9,2.3l2.2,1
		c1.3,0.6,2.9,1.4,5,2.5C55,51,57,52.4,59,54.3c2,1.9,3.8,4.2,5.2,7c1.5,2.8,2.2,6.3,2.2,10.5c0,3.6-0.5,6.8-1.4,9.7
		c-0.9,2.9-2.2,5.5-3.8,7.8c-3.7,4.9-8.9,7.3-15.6,7.3c-6.9,0-12.1-2.2-15.6-6.6C26.7,85.9,25,79.7,25,71.5
		C25,69.7,25.8,68.8,27.3,68.9z"/>
	<path d="M74.9,94.5V2.2c0-0.6,0.2-1.1,0.7-1.5c0.4-0.4,1-0.6,1.6-0.6h15.2c7.8,0,13.5,2.1,17.1,6.3c3.6,4.1,5.3,10.4,5.3,18.9
		c0,8.5-1.8,14.8-5.3,18.9c-3.6,4.2-9.3,6.3-17.1,6.4H79.5v43.9c0,1.5-0.8,2.3-2.3,2.3S74.9,96.1,74.9,94.5z M79.5,46.2h12.9
		c6.2,0,10.8-1.6,13.7-4.9c2.8-3.2,4.1-8.5,4.1-15.9c0-7.5-1.4-12.8-4.1-16c-2.8-3.2-7.3-4.8-13.7-4.8H79.5V46.2z"/>
	<path d="M124.8,94.5V2.2c0-0.6,0.2-1.1,0.6-1.5c0.4-0.4,1-0.6,1.7-0.6c0.7,0,1.2,0.2,1.6,0.6c0.4,0.4,0.6,0.9,0.6,1.5v92.3
		c0,1.5-0.7,2.3-2.2,2.3C125.6,96.9,124.8,96.1,124.8,94.5z"/>
	<path d="M135.3,2.1c0-0.6,0.2-1.1,0.7-1.5s0.9-0.6,1.5-0.6h46.4c0.7,0,1.2,0.2,1.6,0.6c0.4,0.4,0.6,0.9,0.6,1.5
		c0,1.5-0.7,2.3-2.2,2.3H163v90c0,0.7-0.2,1.2-0.7,1.6c-0.5,0.4-1,0.7-1.6,0.7c-1.5,0-2.3-0.8-2.3-2.3v-90h-21
		c-0.6,0-1.1-0.2-1.5-0.6C135.5,3.4,135.3,2.8,135.3,2.1z"/>
	<path d="M196.1,68.9c0.6,0,1.1,0.2,1.5,0.6c0.5,0.4,0.7,1,0.7,1.6c0,4.7,0.5,8.4,1.6,11.2c1,2.8,2.4,4.9,4,6.4s3.3,2.4,5.2,2.8
		c1.9,0.4,3.7,0.6,5.5,0.6c5.2,0,9.2-1.8,12-5.4s4.2-8.6,4.2-15c0-3.5-0.6-6.4-1.8-8.7c-1.2-2.3-2.6-4.3-4.3-5.7
		c-1.7-1.5-3.4-2.7-5.2-3.5c-1.8-0.9-3.3-1.6-4.4-2.1l-2.5-1.1c-1.5-0.6-3.2-1.4-5.3-2.5c-2.1-1.1-4.1-2.7-6.1-4.6
		c-2-2-3.7-4.4-5.1-7.3s-2.1-6.4-2.1-10.6c0-7.3,1.7-13.3,5-17.9c3.7-5.1,8.9-7.7,15.5-7.7c0,0,0.1,0,0.2,0c6.9,0,12.1,2.2,15.6,6.6
		c3.5,4.3,5.2,10.7,5.2,19.1c0,0.6-0.2,1.1-0.7,1.6c-0.4,0.5-1,0.7-1.6,0.7c-0.7,0-1.2-0.2-1.6-0.7c-0.4-0.5-0.7-1-0.7-1.6
		c0-7.3-1.4-12.7-4.1-16.2c-2.6-3.4-6.6-5-12-5c-5.1,0-9,2-11.9,6c-2.8,3.9-4.3,9-4.3,15.2c0,3.5,0.6,6.4,1.7,8.8
		c1.1,2.4,2.6,4.4,4.2,6c1.7,1.6,3.4,2.9,5.2,3.8c1.8,1,3.5,1.7,4.9,2.3l2.2,1c1.3,0.6,2.9,1.4,5,2.5c2.1,1.1,4.2,2.5,6.2,4.4
		c2,1.9,3.8,4.2,5.2,7c1.5,2.8,2.2,6.3,2.2,10.5c0,3.6-0.5,6.8-1.4,9.7c-0.9,2.9-2.2,5.5-3.8,7.8c-3.7,4.9-8.9,7.3-15.6,7.3
		c-6.9,0-12.1-2.2-15.6-6.6c-3.4-4.3-5.1-10.5-5.1-18.6C193.9,69.7,194.6,68.8,196.1,68.9z"/>
</g>
<line fill="none" stroke="#000000" stroke-width="5" stroke-miterlimit="10" x1="0.5" y1="28.6" x2="258.8" y2="85.2"/>
<line fill="none" stroke="#000000" stroke-width="5" stroke-miterlimit="10" x1="1.9" y1="93.2" x2="7.2" y2="93.2"/>
</svg>
